<svg class="introductory-section__ameba-svg" xmlns="http://www.w3.org/2000/svg" viewBox="0 0 100 100" version="1.1"><defs> <linearGradient id="sw-gradient" x1="0" x2="1" y1="1" y2="0"><stop id="stop1" stop-color="rgba(83, 104, 223, 1)" offset="0%"/><stop id="stop2" stop-color="rgba(83, 104, 223, 1)" offset="100%"/></linearGradient></defs><path fill="url(#sw-gradient)" d="M26.7,-28.8C34.4,-25.4,40.2,-16.8,40,-8.4C39.8,-0.1,33.7,7.9,28.5,16C23.3,24.1,19,32.4,11.8,36.9C4.6,41.4,-5.5,42.3,-14,39C-22.4,35.6,-29.1,28.1,-34.6,19.5C-40.1,10.9,-44.4,1.2,-40.3,-4.5C-36.2,-10.2,-23.7,-11.8,-15.6,-15.1C-7.5,-18.4,-3.7,-23.5,2.9,-27C9.5,-30.4,19.1,-32.2,26.7,-28.8Z" width="100%" height="100%" transform="translate(50 50)" stroke-width="0" style="transition: all 0.3s ease 0s;" stroke="url(#sw-gradient)"/></svg>