<svg id="sw-js-blob-svg" viewBox="0 0 100 100" xmlns="http://www.w3.org/2000/svg" version="1.1"><defs> <linearGradient id="sw-gradient" x1="0" x2="1" y1="1" y2="0"><stop id="stop1" stop-color="rgba(83, 104, 223, 1)" offset="0%"></stop><stop id="stop2" stop-color="rgba(83, 104, 223, 1)" offset="100%"></stop></linearGradient></defs><path fill="url(#sw-gradient)" d="M22,-25.9C26.9,-22.1,28.1,-13.6,30.8,-4.5C33.5,4.6,37.6,14.3,35.1,21.8C32.7,29.3,23.6,34.6,14.2,37.3C4.7,40.1,-5,40.4,-11.6,36.1C-18.1,31.9,-21.5,23.1,-26.6,15C-31.8,6.9,-38.8,-0.6,-38.7,-7.8C-38.6,-15,-31.4,-21.9,-23.8,-25.2C-16.1,-28.6,-8.1,-28.3,0.2,-28.6C8.6,-28.9,17.1,-29.7,22,-25.9Z" width="100%" height="100%" transform="translate(50 50)" stroke-width="0" style="transition: all 0.3s ease 0s;"></path></svg>