<svg id="sw-js-blob-svg" viewBox="0 0 100 100" xmlns="http://www.w3.org/2000/svg" version="1.1"><defs> <linearGradient id="sw-gradient" x1="0" x2="1" y1="1" y2="0"><stop id="stop1" stop-color="rgba(83, 104, 223, 1)" offset="0%"></stop><stop id="stop2" stop-color="rgba(83, 104, 223, 1)" offset="100%"></stop></linearGradient></defs><path fill="url(#sw-gradient)" d="M24.8,-31C29.9,-25.2,30.4,-15.3,30.3,-6.7C30.2,1.9,29.5,9.3,26.2,15.3C23,21.4,17.1,26.1,10.4,28.3C3.8,30.6,-3.6,30.5,-11.9,29.1C-20.2,27.6,-29.3,24.9,-33.8,18.7C-38.3,12.6,-38.2,2.9,-35.7,-5.4C-33.2,-13.7,-28.2,-20.7,-21.9,-26.3C-15.5,-31.9,-7.8,-36,1,-37.3C9.8,-38.5,19.6,-36.8,24.8,-31Z" width="100%" height="100%" transform="translate(50 50)" stroke-width="0" style="transition: all 0.3s ease 0s;"></path></svg>